<svg width="905" height="564" viewBox="0 0 905 564" fill="none" xmlns="http://www.w3.org/2000/svg">
<path fill-rule="evenodd" clip-rule="evenodd" d="M794.2 346.584H816.815H819.09C866.327 346.584 905 385.257 905 432.494C905 479.732 866.327 518.405 819.09 518.405H631.078H587.855H139.169C62.6261 518.405 0 455.778 0 379.236C0 302.693 62.6261 240.067 139.169 240.067C171.553 240.067 198.048 213.571 198.048 181.187C198.048 148.804 171.553 122.308 139.169 122.308H125.386C91.798 122.442 64.2319 94.8758 64.2319 61.1541C64.2319 27.5662 91.798 0 125.386 0H131.006H362.375C395.294 0.936714 400.379 10.7053 406.668 29.3058C413.225 48.843 447.348 50.4488 447.348 50.4488H593.877C665.201 50.4488 672.561 72.3946 687.147 115.885C701.867 159.375 778.008 162.854 778.008 162.854H799.553C825.379 162.854 846.388 183.997 846.388 209.69C846.388 235.517 825.245 256.526 799.553 256.526H794.2C769.444 256.526 749.104 276.866 749.104 301.622C749.104 326.244 769.31 346.584 794.2 346.584Z" fill="#EAE5F1"/>
<path fill-rule="evenodd" clip-rule="evenodd" d="M832.07 367.861L831.669 364.516L826.316 358.226C826.316 358.226 811.061 384.588 748.97 384.588L755.26 392.349L819.358 395.829L804.638 382.447L832.07 367.861Z" fill="white"/>
<path fill-rule="evenodd" clip-rule="evenodd" d="M775.6 385.926C775.6 385.926 825.513 378.433 832.873 363.044L838.761 367.326C838.761 367.326 834.479 380.975 815.209 385.792C795.806 390.744 793.13 390.744 793.13 390.744L775.6 385.926Z" fill="#C5BDD1"/>
<path fill-rule="evenodd" clip-rule="evenodd" d="M782.424 384.588H835.951C837.423 384.588 838.761 385.792 838.761 387.398V413.492C838.761 414.964 837.557 416.303 835.951 416.303H782.424C780.952 416.303 779.614 415.098 779.614 413.492V387.264C779.614 385.792 780.952 384.588 782.424 384.588Z" fill="#C5BDD1"/>
<path fill-rule="evenodd" clip-rule="evenodd" d="M714.312 384.588H783.361C784.298 384.588 784.967 385.391 784.967 386.194V414.563C784.967 415.5 784.164 416.169 783.361 416.169H714.312C713.375 416.169 712.706 415.366 712.706 414.563V386.194C712.706 385.257 713.375 384.588 714.312 384.588Z" fill="white"/>
<path fill-rule="evenodd" clip-rule="evenodd" d="M712.706 411.619V410.013H756.865C757.267 410.013 757.668 410.415 757.668 410.816C757.668 411.218 757.267 411.619 756.865 411.619H712.706Z" fill="#C5BDD1"/>
<path fill-rule="evenodd" clip-rule="evenodd" d="M785.101 401.449V403.055H741.744C741.343 403.055 740.941 402.654 740.941 402.252C740.941 401.851 741.343 401.449 741.744 401.449H785.101Z" fill="#C5BDD1"/>
<path fill-rule="evenodd" clip-rule="evenodd" d="M712.706 393.688V392.082H758.605C759.007 392.082 759.408 392.483 759.408 392.885C759.408 393.286 759.007 393.688 758.605 393.688H712.706Z" fill="#C5BDD1"/>
<path fill-rule="evenodd" clip-rule="evenodd" d="M765.563 456.849H697.317C695.31 456.849 693.704 455.243 693.704 453.236V419.782C693.704 417.775 695.31 416.169 697.317 416.169H765.563C767.571 416.169 769.176 417.775 769.176 419.782V453.236C769.176 455.243 767.571 456.849 765.563 456.849Z" fill="#C5BDD1"/>
<path fill-rule="evenodd" clip-rule="evenodd" d="M852.544 456.849H764.359C763.155 456.849 762.218 455.912 762.218 454.708V418.444C762.218 417.239 763.155 416.303 764.359 416.303H852.544C853.748 416.303 854.685 417.239 854.685 418.444V454.708C854.685 455.779 853.748 456.849 852.544 456.849Z" fill="white"/>
<path fill-rule="evenodd" clip-rule="evenodd" d="M854.685 422.191V424.332H798.348C797.813 424.332 797.278 423.796 797.278 423.261C797.278 422.726 797.813 422.191 798.348 422.191H854.685Z" fill="#C5BDD1"/>
<path fill-rule="evenodd" clip-rule="evenodd" d="M762.218 435.171V433.03H817.484C818.02 433.03 818.555 433.565 818.555 434.101C818.555 434.636 818.02 435.171 817.484 435.171H762.218Z" fill="#C5BDD1"/>
<path fill-rule="evenodd" clip-rule="evenodd" d="M854.685 445.073V447.214H796.074C795.539 447.214 795.003 446.679 795.003 446.144C795.003 445.608 795.539 445.073 796.074 445.073H854.685Z" fill="#C5BDD1"/>
<path fill-rule="evenodd" clip-rule="evenodd" d="M785.77 449.087H868.334C870.743 449.087 872.616 450.961 872.616 453.37V493.782C872.616 496.191 870.743 498.064 868.334 498.064H785.77C783.361 498.064 781.488 496.191 781.488 493.782V453.37C781.488 450.961 783.495 449.087 785.77 449.087Z" fill="#C5BDD1"/>
<path fill-rule="evenodd" clip-rule="evenodd" d="M680.724 449.088H787.241C788.713 449.088 789.784 450.292 789.784 451.63V495.522C789.784 496.994 788.58 498.064 787.241 498.064H680.724C679.252 498.064 678.181 496.86 678.181 495.522V451.63C678.181 450.158 679.386 449.088 680.724 449.088Z" fill="white"/>
<path fill-rule="evenodd" clip-rule="evenodd" d="M678.181 490.838V488.296H746.294C746.963 488.296 747.632 488.831 747.632 489.634C747.632 490.303 747.097 490.972 746.294 490.972H678.181V490.838Z" fill="#C5BDD1"/>
<path fill-rule="evenodd" clip-rule="evenodd" d="M789.918 475.181V477.724H723.01C722.34 477.724 721.671 477.189 721.671 476.386C721.671 475.717 722.207 475.048 723.01 475.048H789.918V475.181Z" fill="#C5BDD1"/>
<path fill-rule="evenodd" clip-rule="evenodd" d="M678.181 463.138V460.596H749.104C749.773 460.596 750.442 461.131 750.442 461.934C750.442 462.603 749.907 463.272 749.104 463.272H678.181V463.138Z" fill="#C5BDD1"/>
<path fill-rule="evenodd" clip-rule="evenodd" d="M622.246 452.567V226.952C622.246 138.232 549.584 65.5698 460.864 65.5698C372.01 65.5698 299.347 138.232 299.347 227.086V452.701H622.246V452.567Z" fill="#F6F4F9"/>
<path fill-rule="evenodd" clip-rule="evenodd" d="M675.906 529.779V378.968C675.906 377.763 674.836 376.827 673.498 376.693L661.32 376.559L661.187 305.904C661.187 304.566 660.116 303.629 658.778 303.629L652.622 303.361C651.953 303.361 651.418 303.629 650.883 304.03C650.347 304.432 650.214 305.101 650.214 305.636V323.969H634.825L634.691 244.616C634.691 244.482 634.691 244.348 634.691 244.215C634.423 243.01 634.156 241.806 632.951 241.003C632.55 240.735 632.148 240.601 631.747 240.468L630.543 231.101C630.409 230.03 629.472 229.093 628.268 229.093L624.387 228.826L624.119 205.14C624.119 204.471 623.852 203.802 623.183 203.401C622.246 202.731 621.309 202.062 620.239 201.795C620.105 201.795 619.971 201.795 619.837 201.661L619.704 183.06C619.704 181.722 618.633 180.786 617.295 180.786L597.891 180.919C596.553 180.919 595.483 181.856 595.483 183.06C595.215 186.406 595.349 189.617 595.349 192.963C594.948 192.294 594.145 191.759 593.208 191.759L575.143 191.491C573.805 191.491 572.734 192.428 572.6 193.632C572.466 194.97 572.466 196.308 572.466 197.646C572.466 198.583 572.466 200.858 572.199 201.661C572.199 201.795 572.065 201.929 572.065 202.196H571.931C570.727 202.731 570.191 203.802 570.058 205.14C569.79 206.746 569.924 208.486 569.924 210.091C569.924 214.909 570.191 219.726 570.191 224.41C570.191 225.079 570.191 227.755 569.924 228.826C569.656 228.826 569.255 228.826 568.987 228.826C567.917 228.826 566.846 228.826 565.909 228.826C564.571 228.826 563.501 229.896 563.501 231.234V240.601C563.367 240.601 563.233 240.601 563.099 240.601C562.163 240.735 561.36 240.735 560.691 241.404C559.754 242.207 559.62 243.144 559.62 244.215C559.62 245.285 559.62 246.222 559.62 247.292V328.251H541.421L541.287 195.372C541.287 194.033 540.217 193.097 538.878 193.097H536.737L536.604 183.596C536.604 182.391 535.533 181.321 534.195 181.321L529.779 181.187V135.556C529.779 134.351 528.708 133.281 527.37 133.281L522.954 133.147V116.286C522.954 115.483 522.553 114.814 521.884 114.413C520.144 113.342 519.609 113.074 518.672 113.074L518.538 94.8755C518.538 93.5373 517.468 92.6006 516.13 92.6006H479.732C479.063 92.6006 478.393 92.8682 477.992 93.2697C477.457 93.6711 477.323 94.3402 477.323 95.0093C477.457 99.6929 477.591 104.51 477.724 109.194C477.724 109.863 477.858 112.138 477.591 113.208H477.457C476.788 113.208 476.119 113.208 475.583 113.208C474.245 113.208 473.175 114.279 473.175 115.483L473.041 133.013L468.759 133.147C467.421 133.147 466.484 134.217 466.35 135.422L465.681 180.652L461.533 180.786C460.194 180.786 459.258 181.856 459.124 183.06C458.99 185.469 458.99 188.012 458.99 190.42C458.99 190.822 458.99 192.026 458.856 192.561C458.722 192.695 458.455 192.695 458.321 192.829L455.645 193.632C454.574 193.9 454.039 194.836 454.039 195.907V289.177V298.143C453.771 297.072 452.835 296.269 451.63 296.269H446.278C444.939 296.269 443.869 297.34 443.869 298.544V302.826H434.903V286.367C434.903 285.698 434.636 285.162 434.234 284.761C433.699 284.359 433.164 284.092 432.495 284.092H421.254L421.12 235.383C421.12 234.044 420.05 233.108 418.711 233.108H407.738C407.069 233.108 406.534 233.375 405.999 233.777C405.464 234.178 405.33 234.847 405.33 235.383V244.482H393.019V224.677C393.019 223.339 391.948 222.402 390.61 222.402H360.367C359.029 222.402 357.959 223.473 357.959 224.677L357.691 233.108H329.188V227.487C329.188 226.283 328.118 225.213 326.78 225.213L318.349 225.079C317.68 225.079 317.011 225.346 316.61 225.748C316.074 226.149 315.94 226.818 315.94 227.354V245.954H312.194V238.059V237.791C312.194 236.587 311.257 235.65 310.053 235.65H307.376C306.172 235.65 305.235 236.587 305.235 237.791V268.703C305.235 269.907 306.172 270.844 307.376 270.844H310.053V294.128H290.917V209.422C290.917 207.95 290.382 206.746 289.311 205.675C288.24 204.605 286.902 204.203 285.43 204.203L272.718 204.337C269.64 204.337 267.231 206.746 267.231 209.556V218.388V248.764H239.531V228.424C239.531 226.952 238.996 225.748 237.926 224.677C236.855 223.607 235.517 223.205 234.045 223.205L209.423 223.339C206.345 223.339 203.936 225.748 203.936 228.558L203.669 332.533H178.511C177.039 332.533 175.701 333.069 174.63 334.005C173.56 335.076 173.025 336.28 173.025 337.752V375.087H167.404V530.046H675.906V529.779Z" fill="#EAE5F1"/>
<path fill-rule="evenodd" clip-rule="evenodd" d="M527.103 274.324C530.047 264.689 530.047 259.202 529.11 249.835L571.396 250.371L515.461 219.057C515.461 219.057 504.488 202.598 500.206 187.075C495.79 171.553 515.327 135.155 522.285 126.323C529.11 117.491 541.421 120.033 549.049 126.055C549.049 126.055 563.099 108.793 577.819 109.06C592.539 109.194 638.572 118.026 648.742 153.487C658.912 188.815 633.888 220.797 652.221 257.998C652.221 257.998 653.693 262.682 650.481 266.027C647.27 269.506 609.132 306.038 532.723 282.353C532.589 282.219 526.568 280.212 527.103 274.324Z" fill="#212850"/>
<path fill-rule="evenodd" clip-rule="evenodd" d="M581.164 290.114C581.432 242.743 582.369 201.661 582.369 201.661L587.588 188.815C587.588 188.815 620.64 221.332 649.143 193.365C645.931 214.24 640.846 234.982 652.087 257.73C652.087 257.73 653.559 262.414 650.347 265.759L650.214 265.893L650.08 266.027L649.946 266.161L649.812 266.295L649.544 266.562L649.277 266.83V266.964L649.009 267.098L648.875 267.231L648.742 267.365L648.474 267.633L648.072 267.9L647.939 268.034L647.671 268.302L647.403 268.436L647.136 268.569L647.002 268.703L646.734 268.971L646.199 269.372L645.931 269.64L645.664 269.908C637.501 276.465 618.767 288.107 589.06 289.846H588.926C586.517 290.114 583.841 290.248 581.164 290.114Z" fill="#050A26"/>
<path fill-rule="evenodd" clip-rule="evenodd" d="M527.103 274.323C531.117 261.343 529.779 255.857 527.772 237.658L595.617 233.643L624.253 242.208C624.253 242.208 625.19 258.801 630.944 279.275C612.076 288.508 579.692 296.671 532.723 282.085C532.589 282.219 526.567 280.211 527.103 274.323Z" fill="#050A26"/>
<path fill-rule="evenodd" clip-rule="evenodd" d="M514.925 302.826C514.925 302.826 507.566 306.306 499.269 315.94C493.381 322.765 469.026 387.666 454.307 428.48C450.694 438.65 436.509 473.844 464.744 493.916L470.9 499.403C480.267 479.999 503.685 428.212 503.685 428.212L514.925 302.826Z" fill="#E62952"/>
<path fill-rule="evenodd" clip-rule="evenodd" d="M660.384 302.826C660.384 302.826 667.744 306.306 676.04 315.94C681.928 322.765 706.283 387.666 721.003 428.48C724.616 438.65 738.8 473.844 710.565 493.916L704.409 499.403C695.042 479.999 671.624 428.212 671.624 428.212L660.384 302.826Z" fill="#BD1449"/>
<path fill-rule="evenodd" clip-rule="evenodd" d="M587.454 283.557C587.454 283.557 657.306 300.017 660.518 303.094C663.729 306.038 678.315 378.031 678.315 384.99C678.315 391.413 661.588 480.535 658.778 504.889H516.263C513.587 480.535 496.726 391.413 496.726 384.99C496.726 378.031 511.312 306.038 514.524 303.094C517.735 300.15 587.454 283.557 587.454 283.557Z" fill="#E62952"/>
<path fill-rule="evenodd" clip-rule="evenodd" d="M618.767 291.185C637.769 296.002 658.778 301.488 660.517 303.094C662.658 305.101 669.617 336.682 674.167 360.234C671.892 363.579 670.554 365.586 670.554 365.586C670.554 365.586 658.243 320.49 653.96 317.413C649.678 314.469 611.407 302.827 610.069 302.559C612.745 298.544 615.689 294.664 618.767 291.185Z" fill="#BD1449"/>
<path fill-rule="evenodd" clip-rule="evenodd" d="M616.224 290.649L620.373 291.72L625.725 295.065C625.725 295.065 618.901 332.534 615.689 335.076C612.344 337.753 608.864 334.809 608.864 334.809L591.602 317.145L565.909 292.523V289.043L555.605 294.931C555.605 294.931 562.698 332.4 566.177 334.942C569.656 337.619 573.403 334.675 573.403 334.675L591.602 317.145L616.224 292.523V290.649Z" fill="#BD1449"/>
<path d="M589.06 307.242H585.848V360.903H589.06V307.242Z" fill="#050A26"/>
<path fill-rule="evenodd" clip-rule="evenodd" d="M586.651 231.368H587.186C600.969 231.235 612.344 242.877 612.478 257.195L612.879 287.839C613.013 302.157 601.906 314.067 588.257 314.201H587.722C573.939 314.334 562.564 302.692 562.43 288.374L562.029 257.73C561.761 243.412 572.868 231.502 586.651 231.368Z" fill="#E8685B"/>
<path fill-rule="evenodd" clip-rule="evenodd" d="M489.5 462.737L486.824 465.28L525.363 485.754L516.799 499.269H472.907C472.907 499.269 462.871 494.853 463.674 490.169C464.343 485.62 473.844 459.927 489.5 462.737Z" fill="#EF8871"/>
<path fill-rule="evenodd" clip-rule="evenodd" d="M541.421 484.951C541.421 484.951 534.061 479.999 530.047 477.591C526.032 475.182 521.884 476.253 519.341 477.725C516.799 479.197 505.826 488.162 504.086 489.902C502.347 491.775 512.249 495.656 513.32 495.656C514.39 495.656 541.421 484.951 541.421 484.951Z" fill="#EF8871"/>
<path fill-rule="evenodd" clip-rule="evenodd" d="M685.809 462.737L688.485 465.28L649.946 485.754L658.51 499.269H702.536C702.536 499.269 712.572 494.853 711.769 490.169C710.966 485.62 701.332 459.927 685.809 462.737Z" fill="#EF8871"/>
<path fill-rule="evenodd" clip-rule="evenodd" d="M633.754 484.951C633.754 484.951 641.114 479.999 645.129 477.591C649.143 475.182 653.292 476.253 655.834 477.725C658.377 479.197 669.35 488.162 671.089 489.902C672.829 491.775 662.926 495.656 661.856 495.656C660.919 495.656 633.754 484.951 633.754 484.951Z" fill="#EF8871"/>
<path fill-rule="evenodd" clip-rule="evenodd" d="M520.412 221.867L515.461 219.057C515.461 219.057 507.833 207.549 502.748 194.703C503.685 197.111 510.509 212.099 523.088 204.605C536.871 196.442 535.934 211.43 535.934 211.43C535.934 211.43 527.236 219.459 522.553 221.198C522.151 221.332 521.348 221.6 520.412 221.867Z" fill="#050A26"/>
<path fill-rule="evenodd" clip-rule="evenodd" d="M526.701 213.839C534.864 213.839 541.555 220.396 541.555 228.558C541.555 236.721 534.998 243.412 526.835 243.412C518.672 243.412 511.981 236.855 511.981 228.692C511.981 220.529 518.672 213.839 526.701 213.839Z" fill="#E8685B"/>
<path fill-rule="evenodd" clip-rule="evenodd" d="M630.141 213.437C630.543 213.437 630.81 213.571 631.212 213.571C637.769 215.043 642.72 220.931 642.72 227.889C642.72 236.052 636.163 242.743 628 242.743C619.837 242.743 613.146 236.186 613.146 228.023C613.146 223.34 615.288 219.058 618.767 216.381C618.365 220.797 618.901 226.15 624.521 226.819V218.255C624.521 214.775 627.732 213.303 630.141 213.437Z" fill="#E8685B"/>
<path fill-rule="evenodd" clip-rule="evenodd" d="M573.537 138.901C601.371 138.768 624.253 161.383 624.387 189.216L624.655 235.115C624.789 262.949 602.174 285.832 574.34 285.966C546.506 286.099 523.623 263.485 523.49 235.651L523.222 189.752C523.088 161.918 545.703 139.035 573.537 138.901Z" fill="#F4AD85"/>
<path fill-rule="evenodd" clip-rule="evenodd" d="M624.387 197.246L624.655 235.116C624.788 258.4 608.998 278.204 587.454 284.226C617.964 274.993 607.928 222.537 607.928 222.537C602.04 220.931 593.877 209.021 589.06 202.063C584.242 195.104 580.629 188.146 571.262 187.477C561.895 186.808 541.555 189.752 541.555 189.752C536.47 199.119 528.173 205.542 523.49 208.62L523.356 189.886C523.356 184.265 524.159 178.913 525.898 173.828C527.236 173.292 528.441 172.623 529.913 171.954C572.332 153.086 604.716 174.764 624.387 197.246Z" fill="#ED9072"/>
<path fill-rule="evenodd" clip-rule="evenodd" d="M532.188 176.236L539.949 180.518C539.949 180.518 547.978 176.638 556.676 179.448C556.676 179.448 575.143 174.631 584.242 179.18C593.342 183.73 589.059 170.081 587.454 169.278C585.714 168.475 567.916 165.665 560.021 166.334C551.992 167.137 540.083 167.806 540.083 167.806L532.188 176.236Z" fill="#050A26"/>
<path fill-rule="evenodd" clip-rule="evenodd" d="M624.922 210.36L619.971 210.761C619.971 210.761 615.154 225.748 624.655 226.685V218.121C624.655 217.586 624.789 217.05 624.922 216.515V210.36Z" fill="#050A26"/>
<path fill-rule="evenodd" clip-rule="evenodd" d="M537.942 237.39C541.555 237.39 544.633 240.334 544.633 243.947C544.633 247.56 541.689 250.638 538.076 250.638C534.463 250.638 531.385 247.694 531.385 244.081C531.385 240.468 534.329 237.524 537.942 237.39Z" fill="#E8685B"/>
<path fill-rule="evenodd" clip-rule="evenodd" d="M595.215 237.123C598.828 237.123 601.906 240.067 601.906 243.68C601.906 247.293 598.962 250.371 595.349 250.371C591.736 250.371 588.658 247.427 588.658 243.814C588.524 240.067 591.468 237.123 595.215 237.123Z" fill="#E8685B"/>
<path fill-rule="evenodd" clip-rule="evenodd" d="M579.692 249.3C579.826 256.526 574.206 262.548 566.98 262.682C559.754 262.816 553.732 257.195 553.598 249.969C553.598 248.765 554.535 247.694 555.739 247.694L577.284 247.159C578.622 247.025 579.692 247.962 579.692 249.3Z" fill="#050A26"/>
<path fill-rule="evenodd" clip-rule="evenodd" d="M575.143 259.604C573.002 261.477 570.058 262.682 566.98 262.682C564.437 262.682 562.029 262.147 560.021 260.942C560.958 258.266 563.902 256.125 567.381 255.857C570.727 255.59 573.805 257.195 575.143 259.604Z" fill="#D64341"/>
<path fill-rule="evenodd" clip-rule="evenodd" d="M555.471 247.694L575.811 247.159C576.213 249.434 575.276 251.709 573.67 252.244C571.797 252.913 557.211 252.913 556.141 251.709C555.605 251.174 555.471 249.3 555.471 247.694Z" fill="white"/>
<path fill-rule="evenodd" clip-rule="evenodd" d="M556.676 179.448C564.973 170.215 577.284 169.412 585.179 184.265C592.539 197.781 602.976 221.065 624.521 221.466L624.655 221.065L624.788 206.746C624.788 206.746 626.528 207.416 628.669 208.085C630.543 200.725 632.282 191.358 631.881 182.66C631.212 164.594 608.864 135.958 580.897 132.211C552.929 128.464 530.983 143.184 526.032 152.283C521.081 161.383 515.059 182.526 515.059 182.526L519.341 190.019L523.222 204.605C537.406 193.365 537.139 181.321 543.428 175.835C546.774 172.891 551.323 173.426 556.676 179.448Z" fill="#212850"/>
<path fill-rule="evenodd" clip-rule="evenodd" d="M587.588 188.949C594.814 202.598 605.251 221.199 624.387 221.333L624.521 220.931L624.655 206.613C624.655 206.613 626.394 207.282 628.535 207.951C628.803 206.747 629.205 205.408 629.472 204.204C607.392 208.352 587.721 188.949 587.588 188.949Z" fill="#050A26"/>
<path fill-rule="evenodd" clip-rule="evenodd" d="M554.669 120.167C563.501 143.585 590.398 195.64 651.016 177.441C651.15 175.567 651.15 173.694 651.15 171.82C632.282 171.82 585.848 165.932 583.172 109.462C581.031 109.194 579.157 109.06 577.685 109.06C568.853 108.927 560.155 115.216 554.669 120.167Z" fill="#3A2689"/>
<path fill-rule="evenodd" clip-rule="evenodd" d="M534.998 215.846C534.061 216.381 532.857 215.98 532.322 214.909C531.786 213.972 532.188 212.768 533.124 212.233C538.209 209.69 544.9 209.289 549.851 212.367C550.788 212.902 551.056 214.106 550.521 215.043C549.985 215.98 548.781 216.247 547.844 215.712C543.964 213.437 539.012 213.972 534.998 215.846Z" fill="#050A26"/>
<path fill-rule="evenodd" clip-rule="evenodd" d="M598.427 215.846C594.412 213.972 589.461 213.437 585.446 215.712C584.51 216.247 583.305 215.98 582.77 215.043C582.235 214.106 582.502 212.902 583.439 212.367C588.39 209.423 595.081 209.69 600.166 212.233C601.103 212.768 601.504 213.839 601.103 214.909C600.568 215.98 599.363 216.381 598.427 215.846Z" fill="#050A26"/>
<path fill-rule="evenodd" clip-rule="evenodd" d="M540.752 219.593C539.682 219.593 538.611 219.994 537.808 220.663C537.407 220.529 536.872 220.396 536.604 219.726C536.47 219.325 535.935 219.191 535.667 219.459C535.266 219.593 535.132 220.128 535.4 220.396C535.801 221.065 536.336 221.6 536.872 221.868C536.202 221.734 535.533 221.332 534.998 220.663C534.73 220.396 534.329 220.262 533.928 220.529C533.66 220.797 533.526 221.198 533.794 221.6C534.463 222.403 535.266 222.804 535.935 223.072C535.266 223.072 534.463 222.804 533.794 222.403C533.392 222.135 532.991 222.269 532.723 222.67C532.456 223.072 532.589 223.473 532.991 223.741C533.794 224.276 534.597 224.544 535.266 224.544L536.336 224.678V230.298C536.336 232.84 538.344 234.848 540.886 234.848C543.429 234.848 545.436 232.84 545.436 230.298V224.276C545.302 221.734 543.295 219.593 540.752 219.593Z" fill="#050A26"/>
<path fill-rule="evenodd" clip-rule="evenodd" d="M592.673 219.593C593.743 219.593 594.814 219.994 595.617 220.663C596.018 220.529 596.553 220.396 596.821 219.726C596.955 219.325 597.49 219.191 597.758 219.459C598.159 219.593 598.293 220.128 598.025 220.396C597.624 221.065 597.089 221.6 596.553 221.868C597.222 221.734 597.891 221.332 598.427 220.663C598.694 220.396 599.096 220.262 599.497 220.529C599.765 220.797 599.899 221.198 599.631 221.6C598.962 222.403 598.159 222.804 597.49 223.072C598.159 223.072 598.962 222.804 599.631 222.403C600.033 222.135 600.434 222.269 600.702 222.67C600.969 223.072 600.835 223.473 600.434 223.741C599.631 224.276 598.828 224.544 598.159 224.544L597.089 224.678V230.298C597.089 232.84 595.081 234.848 592.539 234.848C589.996 234.848 587.989 232.84 587.989 230.298V224.276C587.989 221.734 590.13 219.593 592.673 219.593Z" fill="#050A26"/>
<path fill-rule="evenodd" clip-rule="evenodd" d="M610.069 215.712C608.597 213.972 605.653 211.697 603.913 210.359C603.512 209.958 602.977 209.69 602.575 209.289C599.23 207.014 595.215 205.81 590.933 205.81C585.179 205.81 579.826 208.218 576.08 211.965C574.206 213.705 572.6 215.578 570.995 217.452C568.854 219.726 567.649 218.656 565.642 218.656C563.501 218.656 562.297 219.86 560.289 217.452C558.684 215.578 557.078 213.705 555.204 211.965C551.457 208.084 546.105 205.81 540.217 205.81C535.935 205.81 531.653 207.148 528.441 209.289C527.906 209.556 527.504 209.958 527.103 210.359C525.096 213.036 516.264 219.459 519.743 232.038C520.011 233.242 520.412 234.446 520.947 235.517C521.349 236.587 522.018 237.658 522.553 238.461C526.3 244.215 532.723 247.962 540.083 247.962C548.647 247.962 555.873 242.877 559.219 235.651C559.219 235.651 559.219 235.651 559.219 235.517C560.691 232.974 562.297 225.882 562.966 224.811C563.635 223.741 565.374 223.607 565.374 223.607C565.374 223.607 567.114 223.741 567.783 224.811C568.452 225.882 569.924 232.974 571.53 235.517C571.53 235.517 571.53 235.517 571.53 235.651C574.875 242.877 582.101 247.962 590.666 247.962C598.025 247.962 604.449 244.215 608.196 238.461C608.865 237.658 609.4 236.587 609.801 235.517C610.337 234.446 610.738 233.242 611.006 232.038C611.942 228.692 612.612 225.481 613.147 224.811C614.083 223.741 624.387 223.875 624.387 223.875V218.522C624.521 218.388 612.344 218.254 610.069 215.712ZM540.217 245.018C530.181 245.018 522.018 236.855 522.018 226.819C522.018 216.783 530.181 208.62 540.217 208.62C550.253 208.62 558.416 216.783 558.416 226.819C558.416 236.855 550.253 245.018 540.217 245.018ZM590.933 245.018C580.897 245.018 572.734 236.855 572.734 226.819C572.734 216.783 580.897 208.62 590.933 208.62C600.969 208.62 609.132 216.783 609.132 226.819C608.998 236.855 600.969 245.018 590.933 245.018Z" fill="#050A26"/>
<path fill-rule="evenodd" clip-rule="evenodd" d="M710.967 346.317H632.55H542.626H464.343C460.73 346.317 458.188 349.261 458.723 353.008L477.591 478.26C478.126 481.873 481.605 484.951 485.218 484.951H521.884H653.559H690.225C693.838 484.951 697.317 482.007 697.853 478.26L716.721 353.008C717.256 349.261 714.714 346.317 710.967 346.317Z" fill="#C8BFDE"/>
<path fill-rule="evenodd" clip-rule="evenodd" d="M705.48 352.205H630.543H544.633H469.696C466.216 352.205 463.808 355.015 464.343 358.628L482.408 478.26C482.943 481.739 486.289 484.683 489.768 484.683H524.828H650.615H685.675C689.155 484.683 692.5 481.873 693.035 478.26L711.1 358.628C711.502 355.149 708.959 352.205 705.48 352.205Z" fill="white"/>
<path fill-rule="evenodd" clip-rule="evenodd" d="M477.725 447.616L482.408 478.26C482.943 481.739 486.289 484.683 489.768 484.683H524.828H650.615H685.675C689.154 484.683 692.5 481.873 693.035 478.26L711.1 358.628C711.502 355.818 710.03 353.409 707.621 352.606C680.456 399.04 614.083 475.316 477.725 447.616Z" fill="#DAD1E7"/>
<path fill-rule="evenodd" clip-rule="evenodd" d="M587.588 452.835C602.04 452.835 613.816 443.066 613.816 430.889C613.816 418.846 602.04 408.943 587.588 408.943C573.135 408.943 561.36 418.712 561.36 430.889C561.36 442.932 573.135 452.835 587.588 452.835Z" fill="#DAD1E7"/>
<path fill-rule="evenodd" clip-rule="evenodd" d="M587.588 413.225C591.201 413.225 594.68 414.028 597.624 415.366C593.476 416.838 590.666 420.184 590.666 424.064C590.666 429.283 595.751 433.431 601.906 433.431C604.449 433.431 606.857 432.762 608.731 431.424C608.329 440.925 598.962 448.686 587.454 448.686C575.678 448.686 566.177 440.791 566.177 430.889C566.445 421.12 575.946 413.225 587.588 413.225Z" fill="white"/>
<path fill-rule="evenodd" clip-rule="evenodd" d="M459.659 498.065H715.784C719.664 498.065 722.876 494.853 722.876 490.973C722.876 487.092 719.664 483.88 715.784 483.88H459.659C455.779 483.88 452.567 487.092 452.567 490.973C452.433 494.853 455.645 498.065 459.659 498.065Z" fill="#C8BFDE"/>
<path fill-rule="evenodd" clip-rule="evenodd" d="M627.866 498.065H715.784C719.664 498.065 722.876 494.853 722.876 490.973C722.876 487.092 719.664 483.88 715.784 483.88H627.866C623.986 483.88 620.774 487.092 620.774 490.973C620.64 494.853 623.852 498.065 627.866 498.065Z" fill="#DAD1E7"/>
<path fill-rule="evenodd" clip-rule="evenodd" d="M563.5 238.729C563.5 238.729 561.493 242.476 562.028 244.483C562.698 246.49 565.508 245.419 565.775 243.68C566.043 241.94 565.24 238.595 564.972 238.193C564.972 237.792 564.036 237.658 563.5 238.729Z" fill="#F8CAAE"/>
<path fill-rule="evenodd" clip-rule="evenodd" d="M612.611 286.233V289.713L587.989 314.335L605.251 331.865C605.251 331.865 608.73 334.809 612.076 332.132C615.421 329.456 622.112 291.988 622.112 291.988L612.611 286.233Z" fill="white"/>
<path fill-rule="evenodd" clip-rule="evenodd" d="M562.296 286.233V289.713L587.989 314.335L569.79 331.865C569.79 331.865 566.043 334.809 562.564 332.132C559.085 329.456 551.992 291.988 551.992 291.988L562.296 286.233Z" fill="white"/>
<path fill-rule="evenodd" clip-rule="evenodd" d="M342.57 187.209L353.81 212.366C353.81 212.366 394.223 254.786 352.74 294.53C311.257 334.273 254.786 303.763 254.786 303.763L219.057 291.853C219.057 291.853 210.092 271.246 219.994 249.701C219.994 249.701 207.148 221.867 228.023 198.985C248.898 175.968 342.57 187.209 342.57 187.209Z" fill="#050A26"/>
<path fill-rule="evenodd" clip-rule="evenodd" d="M414.831 171.017L415.366 183.998C415.366 183.998 451.362 275.929 449.489 279.542C447.616 283.289 383.919 279.141 321.025 272.718C316.208 272.049 318.617 274.457 316.208 276.732C313.799 279.007 334.675 295.467 334.675 295.467L373.347 336.281C403.055 333.203 452.299 324.103 471.301 310.454C487.894 298.544 486.021 277.134 477.323 261.21C463.406 235.918 433.03 171.017 433.03 171.017H414.831Z" fill="#716AAE"/>
<path fill-rule="evenodd" clip-rule="evenodd" d="M374.552 336.147C404.527 332.668 453.236 323.434 471.301 310.454C473.309 308.982 475.182 307.376 476.654 305.503C476.52 305.637 468.759 313.8 439.721 318.483C410.683 323.301 372.679 318.617 370.939 318.349C369.333 318.215 370.002 328.653 374.552 336.147Z" fill="#5353A0"/>
<path fill-rule="evenodd" clip-rule="evenodd" d="M414.965 173.025L415.366 183.998C415.366 183.998 435.572 235.651 444.939 263.083C444.939 263.083 425.804 199.386 427.543 193.231C428.48 189.752 433.565 184.934 437.847 181.321C434.769 174.898 433.03 171.017 433.03 171.017H420.719C418.578 171.686 416.57 172.355 414.965 173.025Z" fill="#5353A0"/>
<path fill-rule="evenodd" clip-rule="evenodd" d="M399.041 177.441C393.42 173.56 382.849 172.489 380.708 172.356C378.834 172.222 379.37 167.538 382.715 165.665C386.06 163.791 397.702 168.073 399.174 162.988C399.843 160.847 382.983 139.035 380.975 136.493C378.968 133.95 381.511 131.14 382.849 131.14C384.187 131.14 386.997 134.887 391.012 139.303C394.892 143.719 399.442 148.804 400.245 148.804C401.048 148.938 401.985 147.867 400.78 144.656C399.576 141.31 392.216 123.513 392.751 121.773C393.286 120.033 396.498 119.097 398.372 121.505C400.245 123.914 406.936 142.113 408.542 144.254C410.147 146.261 411.887 144.388 411.753 142.648C411.619 140.775 407.203 119.9 407.605 118.294C408.006 116.688 411.352 115.885 412.69 118.829C414.028 121.773 419.113 141.578 420.184 142.648C421.254 143.719 423.529 143.184 424.198 139.169C425.001 135.155 425.536 126.858 426.473 125.921C427.276 124.985 431.023 126.59 431.023 130.739C431.023 134.887 431.29 145.325 431.558 146.93C432.762 155.093 436.242 162.052 436.242 168.475C436.242 170.75 435.706 173.158 434.636 175.433C432.093 180.786 426.874 185.336 421.12 186.942C411.084 189.752 406.668 182.927 399.041 177.441Z" fill="#F4AD85"/>
<path fill-rule="evenodd" clip-rule="evenodd" d="M399.041 177.441C393.42 173.56 383.116 172.623 380.841 172.489C379.905 172.489 379.503 171.151 379.905 169.679C390.61 165.665 402.787 178.913 410.816 179.983C421.254 181.455 430.487 172.356 432.628 169.144C434.769 165.799 434.502 159.643 433.699 155.762C435.037 160.312 436.241 164.461 436.375 168.341C436.375 170.616 435.84 173.025 434.769 175.3C432.227 180.652 427.008 185.202 421.254 186.808C411.084 189.752 406.668 182.927 399.041 177.441Z" fill="#F19879"/>
<path fill-rule="evenodd" clip-rule="evenodd" d="M214.374 284.761C214.374 284.761 206.479 288.508 197.647 298.812C191.357 306.172 165.263 375.489 149.607 419.247C145.726 430.086 130.471 467.822 160.713 489.233L167.27 495.121C177.307 474.245 202.464 418.979 202.464 418.979L214.374 284.761Z" fill="#5353A0"/>
<path fill-rule="evenodd" clip-rule="evenodd" d="M287.304 265.491C271.513 269.64 224.142 282.352 221.6 285.029C218.522 288.24 204.337 365.185 204.337 372.678C204.337 379.637 220.529 475.048 223.206 501.008H292.389H361.572C364.248 474.914 380.574 379.637 380.44 372.678C380.44 365.185 365.988 287.973 363.177 285.029C360.367 282.085 333.738 276.866 317.947 272.718L298.009 298.812H295.199L292.255 303.897L289.311 298.812H286.501L287.304 265.491Z" fill="#716AAE"/>
<path fill-rule="evenodd" clip-rule="evenodd" d="M377.228 398.773C379.637 384.99 381.243 374.953 381.243 372.812C381.243 368.53 376.024 341.499 370.939 318.483C367.326 320.49 369.333 331.195 368.932 348.056C368.664 357.825 372.812 379.102 377.228 398.773Z" fill="#5353A0"/>
<path fill-rule="evenodd" clip-rule="evenodd" d="M286.768 265.492C269.372 269.64 217.05 282.353 214.24 285.029C210.761 288.241 195.238 365.185 195.238 372.679C195.238 375.221 197.513 389.138 200.724 407.203C227.488 414.028 249.3 418.711 249.3 418.711C249.3 418.711 205.274 368.263 209.155 346.049C213.035 323.836 215.712 303.228 219.325 300.953C223.072 298.678 246.356 290.382 253.314 288.642C260.273 286.902 261.209 291.987 261.209 291.987C261.209 291.987 266.294 309.517 267.231 312.997C268.034 316.476 269.907 318.082 271.915 317.011C274.056 316.074 284.895 307.644 285.564 308.045C286.233 308.447 290.783 316.61 290.783 316.61L293.994 312.729L296.671 305.77C296.671 305.77 308.982 315.539 310.855 317.011C312.729 318.483 315.539 317.68 316.208 315.673C316.743 313.666 322.23 287.839 322.23 287.839L318.349 270.309C310.186 268.302 302.826 266.562 298.009 265.358L298.678 298.678H295.6L292.388 303.763L289.177 298.678H286.099L286.768 265.492Z" fill="#5353A0"/>
<path fill-rule="evenodd" clip-rule="evenodd" d="M293.995 301.354L292.389 303.897L290.783 301.354V348.859C290.783 349.796 291.452 350.465 292.389 350.465C293.325 350.465 293.995 349.796 293.995 348.859V301.354Z" fill="#54519F"/>
<path fill-rule="evenodd" clip-rule="evenodd" d="M293.192 210.761H292.79C280.078 210.627 269.64 223.875 269.506 240.468L269.239 275.796C269.105 286.501 273.387 295.868 279.81 301.354V298.812H286.233H289.311L292.523 303.897L295.734 298.812H298.812H303.362V302.693C310.588 297.741 315.673 287.839 315.807 276.465L316.074 241.137C316.208 224.678 305.904 211.028 293.192 210.761Z" fill="#E8685B"/>
<path fill-rule="evenodd" clip-rule="evenodd" d="M214.24 284.895C213.972 285.029 213.303 285.564 212.367 286.367C208.218 298.544 203.936 318.215 201.795 349.796C201.795 350.331 202.063 350.732 202.33 350.732C202.598 350.732 203 350.465 203 349.93C205.408 316.342 209.958 296.537 214.24 284.895Z" fill="#3A2689"/>
<path fill-rule="evenodd" clip-rule="evenodd" d="M342.971 274.993C357.022 286.099 364.248 307.376 373.348 336.414L374.686 336.281C365.854 307.912 359.431 286.769 345.38 275.26L342.971 274.993Z" fill="#5353A0"/>
<path fill-rule="evenodd" clip-rule="evenodd" d="M187.075 456.046L184.131 458.856L225.347 480.802L216.113 495.254H169.144C169.144 495.254 158.438 490.437 159.241 485.62C160.178 480.535 170.482 452.968 187.075 456.046Z" fill="#F4AD85"/>
<path fill-rule="evenodd" clip-rule="evenodd" d="M242.743 479.732C242.743 479.732 234.848 474.379 230.565 471.837C226.283 469.294 221.734 470.365 219.057 471.97C216.381 473.576 204.605 483.077 202.732 485.084C200.858 486.958 211.564 491.24 212.634 491.24C213.838 491.24 242.743 479.732 242.743 479.732Z" fill="#EF8871"/>
<path fill-rule="evenodd" clip-rule="evenodd" d="M269.238 269.774C269.238 269.774 274.323 281.951 276.063 285.029C277.803 288.107 289.177 298.812 289.177 298.812C289.177 298.812 289.579 299.749 289.177 300.284C288.776 300.819 271.781 314.736 271.781 314.736C271.781 314.736 270.309 315.673 269.238 313.532C268.168 311.391 262.949 292.79 262.548 288.107C262.146 283.423 264.689 268.971 264.689 268.971L269.105 266.428L269.238 269.774Z" fill="white"/>
<path fill-rule="evenodd" clip-rule="evenodd" d="M315.405 269.774C315.405 269.774 310.32 281.951 308.581 285.029C306.841 288.107 295.467 298.812 295.467 298.812C295.467 298.812 295.065 299.749 295.467 300.284C295.868 300.819 312.863 314.736 312.863 314.736C312.863 314.736 314.335 315.673 315.405 313.532C316.476 311.391 321.695 292.79 322.096 288.107C322.498 283.423 320.758 271.246 320.758 271.246L315.539 266.562L315.405 269.774Z" fill="white"/>
<path fill-rule="evenodd" clip-rule="evenodd" d="M333.337 151.346C333.337 151.346 325.04 130.605 316.074 125.252C306.975 119.899 269.506 115.35 257.329 118.963C245.152 122.442 222.403 161.65 221.6 188.681C220.663 215.846 236.32 227.488 250.772 229.896C264.956 232.171 333.337 151.346 333.337 151.346Z" fill="#050A26"/>
<path fill-rule="evenodd" clip-rule="evenodd" d="M344.577 145.057C344.577 145.057 363.445 160.58 365.185 165.932C366.924 171.419 364.248 196.175 354.881 207.148C345.514 218.255 321.962 215.578 321.561 211.029C321.025 206.479 320.624 166.602 323.166 163.39C325.575 160.312 344.577 145.057 344.577 145.057Z" fill="#050A26"/>
<path fill-rule="evenodd" clip-rule="evenodd" d="M347.789 201.795C348.19 201.929 348.458 201.929 348.859 202.063C355.149 203.936 359.431 209.958 359.029 216.783C358.494 224.678 351.669 230.7 343.774 230.164C335.879 229.629 329.857 222.805 330.392 214.909C330.66 210.36 333.069 206.345 336.682 203.936C336.013 208.085 336.147 213.437 341.499 214.374L342.035 206.078C342.302 202.732 345.514 201.394 347.789 201.795Z" fill="#E8685B"/>
<path fill-rule="evenodd" clip-rule="evenodd" d="M244.884 192.83C244.483 192.83 244.215 192.83 243.813 192.963C237.39 193.766 232.038 198.985 231.369 205.676C230.566 213.571 236.186 220.53 244.081 221.466C251.976 222.269 258.935 216.649 259.871 208.754C260.407 204.204 258.667 199.922 255.589 196.978C255.589 201.26 254.519 206.345 249.032 206.479L249.835 198.316C250.103 194.837 247.159 192.963 244.884 192.83Z" fill="#E8685B"/>
<path fill-rule="evenodd" clip-rule="evenodd" d="M302.425 126.055C329.322 128.33 349.394 152.283 347.12 179.18L343.239 223.607C340.964 250.504 317.011 270.577 290.114 268.302C263.217 266.027 243.144 242.074 245.419 215.177L249.3 170.75C251.709 143.853 275.528 123.646 302.425 126.055Z" fill="#F4AD85"/>
<path fill-rule="evenodd" clip-rule="evenodd" d="M302.425 126.055C329.322 128.33 349.394 152.283 347.12 179.18L343.239 223.607C340.964 250.504 317.011 270.577 290.114 268.302C334.006 267.633 336.28 215.177 336.28 215.177C332.132 207.549 329.723 188.949 329.054 182.525C328.385 175.968 321.962 176.771 321.962 176.771C298.812 179.849 279.408 173.025 279.408 173.025C274.19 184.8 263.351 191.224 263.351 191.224L259.604 188.949C234.848 145.86 288.374 126.992 289.043 126.724H289.177C289.445 126.724 291.05 126.456 293.593 126.055C296.671 125.787 299.481 125.787 302.425 126.055Z" fill="#EF8871"/>
<path fill-rule="evenodd" clip-rule="evenodd" d="M305.904 233.644C305.637 240.602 299.615 246.088 292.656 245.687C285.698 245.419 280.212 239.398 280.613 232.439C280.613 231.235 281.684 230.298 282.888 230.298L303.763 231.235C304.968 231.502 305.904 232.439 305.904 233.644Z" fill="white"/>
<path fill-rule="evenodd" clip-rule="evenodd" d="M300.685 243.412C298.41 245.018 295.6 245.955 292.656 245.821C290.248 245.687 287.973 244.884 286.099 243.546C287.17 241.003 290.114 239.13 293.593 239.264C296.805 239.264 299.615 241.003 300.685 243.412Z" fill="white"/>
<path fill-rule="evenodd" clip-rule="evenodd" d="M282.62 230.432L302.291 231.369C302.559 233.51 301.354 235.651 299.882 236.186C298.009 236.722 283.825 235.651 282.888 234.447C282.353 233.911 282.486 232.038 282.62 230.432Z" fill="white"/>
<path fill-rule="evenodd" clip-rule="evenodd" d="M266.429 219.325C270.042 219.593 272.718 222.671 272.45 226.15C272.183 229.763 269.105 232.439 265.626 232.171C262.013 231.904 259.336 228.826 259.604 225.347C259.872 221.868 262.949 219.191 266.429 219.325Z" fill="#E8685B"/>
<path fill-rule="evenodd" clip-rule="evenodd" d="M321.828 223.072C325.441 223.34 328.118 226.417 327.85 229.897C327.583 233.51 324.505 236.186 321.026 235.918C317.412 235.651 314.736 232.573 315.004 229.094C315.271 225.481 318.349 222.804 321.828 223.072Z" fill="#E8685B"/>
<path fill-rule="evenodd" clip-rule="evenodd" d="M327.448 200.591C328.251 201.126 329.456 200.858 329.857 200.055C330.392 199.252 330.125 198.048 329.322 197.647C324.906 194.837 318.75 194.034 314.067 196.442C313.13 196.844 312.862 197.914 313.264 198.851C313.665 199.788 314.736 200.055 315.673 199.654C319.419 197.647 323.969 198.583 327.448 200.591Z" fill="#050A26"/>
<path fill-rule="evenodd" clip-rule="evenodd" d="M265.09 195.238C268.971 193.766 273.521 193.632 277 196.175C277.803 196.71 278.873 196.576 279.542 195.773C280.078 194.97 279.944 193.9 279.141 193.231C274.859 190.153 268.703 189.885 263.886 191.893C262.949 192.294 262.548 193.365 262.815 194.167C263.217 195.238 264.153 195.639 265.09 195.238Z" fill="#050A26"/>
<path fill-rule="evenodd" clip-rule="evenodd" d="M344.711 208.084L344.176 214.909C341.901 214.775 339.358 211.028 339.626 208.084C339.893 205.007 340.161 201.795 340.161 201.795C340.161 201.795 335.478 192.695 336.28 183.596C337.083 174.496 335.344 168.876 327.582 168.207C319.821 167.538 311.658 170.883 298.812 169.813C286.099 168.742 278.606 163.925 270.844 163.256C263.083 162.587 260.407 167.806 259.737 176.905C258.935 186.005 252.779 194.167 252.779 194.167C252.779 194.167 252.511 197.379 252.244 200.457C251.976 203.535 248.898 206.612 246.49 206.479L247.025 199.654C247.426 194.97 245.821 192.963 245.821 192.963C245.821 192.963 245.821 192.695 247.56 172.489C253.582 102.905 354.747 111.603 348.725 181.187C346.986 201.394 346.986 201.661 346.986 201.661C346.986 201.661 344.978 203.267 344.711 208.084Z" fill="#050A26"/>
<path fill-rule="evenodd" clip-rule="evenodd" d="M321.828 203.669C322.899 203.802 323.702 204.204 324.371 204.873C324.638 204.873 325.308 204.605 325.575 204.07C325.709 203.802 326.244 203.669 326.512 203.802C326.78 203.936 326.913 204.471 326.78 204.739C326.378 205.408 325.843 205.676 325.308 205.943C325.843 205.81 326.512 205.676 327.181 205.007C327.449 204.739 327.85 204.739 328.118 205.007C328.385 205.274 328.385 205.676 328.118 205.943C327.449 206.613 326.78 207.014 325.977 207.148C326.646 207.148 327.315 207.014 327.984 206.613C328.252 206.479 328.787 206.613 328.921 206.88C329.054 207.148 328.921 207.683 328.653 207.817C327.85 208.218 327.181 208.352 326.512 208.486H325.575L325.174 213.571C325.04 215.846 322.899 217.585 320.624 217.452C318.349 217.318 316.609 215.177 316.743 212.902L317.279 207.415C317.546 205.141 319.553 203.401 321.828 203.669Z" fill="#050A26"/>
<path fill-rule="evenodd" clip-rule="evenodd" d="M270.041 199.252C268.971 199.119 268.034 199.386 267.231 200.055C266.963 199.922 266.428 199.654 266.161 199.119C266.027 198.717 265.625 198.583 265.224 198.717C264.822 198.851 264.689 199.252 264.822 199.654C265.09 200.323 265.625 200.858 266.027 201.126C265.492 200.992 264.822 200.591 264.421 199.922C264.153 199.654 263.752 199.52 263.484 199.788C263.217 200.055 263.083 200.457 263.35 200.724C263.886 201.527 264.555 201.929 265.224 202.33C264.555 202.196 263.886 202.063 263.217 201.527C262.949 201.26 262.548 201.393 262.28 201.661C262.012 201.929 262.146 202.33 262.414 202.598C263.083 203.133 263.752 203.401 264.421 203.535L265.358 203.802L264.956 208.887C264.822 211.162 266.428 213.303 268.837 213.437C271.112 213.571 273.253 211.965 273.387 209.556L273.922 204.07C274.19 201.527 272.45 199.386 270.041 199.252Z" fill="#050A26"/>
<path fill-rule="evenodd" clip-rule="evenodd" d="M338.288 164.193C338.288 164.193 350.733 149.607 352.071 141.979C353.409 134.485 331.597 112.138 298.143 104.243C271.781 98.0874 263.083 117.892 248.631 139.972C246.624 143.184 246.222 145.592 246.222 145.592L338.288 164.193Z" fill="#050A26"/>
<path fill-rule="evenodd" clip-rule="evenodd" d="M169.546 346.317H247.962H337.887H416.169C419.782 346.317 422.325 349.261 421.789 353.008L402.921 478.26C402.386 481.873 398.907 484.951 395.294 484.951H358.628H226.953H190.287C186.674 484.951 183.195 482.007 182.66 478.26L163.792 353.008C163.256 349.261 165.799 346.317 169.546 346.317Z" fill="#C8BFDE"/>
<path fill-rule="evenodd" clip-rule="evenodd" d="M175.032 352.205H249.969H335.879H410.816C414.296 352.205 416.704 355.015 416.169 358.628L398.104 478.26C397.569 481.739 394.223 484.683 390.744 484.683H355.684H229.897H194.837C191.358 484.683 188.012 481.873 187.477 478.26L169.546 358.628C169.01 355.149 171.419 352.205 175.032 352.205Z" fill="white"/>
<path fill-rule="evenodd" clip-rule="evenodd" d="M402.787 447.616L398.104 478.26C397.569 481.739 394.223 484.683 390.744 484.683H355.684H229.897H194.837C191.358 484.683 188.012 481.873 187.477 478.26L169.545 358.628C169.144 355.818 170.616 353.409 173.025 352.606C200.056 399.04 266.295 475.316 402.787 447.616Z" fill="#DAD1E7"/>
<path fill-rule="evenodd" clip-rule="evenodd" d="M292.79 452.835C307.242 452.835 319.018 443.066 319.018 430.889C319.018 418.846 307.242 408.943 292.79 408.943C278.338 408.943 266.562 418.712 266.562 430.889C266.562 442.932 278.472 452.835 292.79 452.835Z" fill="#DAD1E7"/>
<path fill-rule="evenodd" clip-rule="evenodd" d="M292.79 413.225C289.177 413.225 285.698 414.028 282.754 415.366C286.902 416.838 289.712 420.184 289.712 424.064C289.712 429.283 284.627 433.431 278.472 433.431C275.929 433.431 273.521 432.762 271.647 431.424C272.049 440.925 281.416 448.686 292.924 448.686C304.7 448.686 314.201 440.791 314.201 430.889C314.067 421.12 304.566 413.225 292.79 413.225Z" fill="white"/>
<path fill-rule="evenodd" clip-rule="evenodd" d="M420.853 498.065H164.862C160.981 498.065 157.77 494.853 157.77 490.973C157.77 487.092 160.981 483.88 164.862 483.88H420.987C424.867 483.88 428.079 487.092 428.079 490.973C428.079 494.853 424.867 498.065 420.853 498.065Z" fill="#C8BFDE"/>
<path fill-rule="evenodd" clip-rule="evenodd" d="M252.646 498.065H164.728C160.848 498.065 157.636 494.853 157.636 490.973C157.636 487.092 160.848 483.88 164.728 483.88H252.646C256.526 483.88 259.738 487.092 259.738 490.973C259.872 494.853 256.526 498.065 252.646 498.065Z" fill="#DAD1E7"/>
<path fill-rule="evenodd" clip-rule="evenodd" d="M288.241 207.683C289.445 197.112 281.818 187.744 271.38 186.54C260.808 185.336 251.441 192.963 250.237 203.401C249.033 213.839 256.66 223.34 267.098 224.544C277.669 225.748 287.17 218.121 288.241 207.683ZM291.318 198.048C293.192 200.725 294.53 199.654 297.073 199.922C299.214 200.189 300.418 201.527 302.827 199.253C309.25 193.499 314.87 188.28 325.04 189.35C329.59 189.885 333.604 191.759 336.816 194.435L342.57 200.457L341.232 206.88C341.232 206.88 346.852 209.958 345.514 213.571C344.31 216.515 342.57 222.403 339.626 225.481C335.076 230.967 327.85 234.179 320.089 233.376C311.123 232.439 304.031 226.15 301.489 218.121C298.545 210.895 300.953 205.408 296.136 204.739C291.854 204.204 292.121 211.43 288.241 216.515L288.107 216.649C283.825 223.875 275.528 228.291 266.562 227.354C258.935 226.551 252.512 221.734 249.3 215.444C247.293 211.965 246.758 206.211 246.356 202.999H246.49C246.49 202.999 246.891 195.773 251.441 190.822L259.069 185.737C268.57 180.786 279.676 183.328 286.635 191.625C288.375 193.766 289.713 195.907 291.318 198.048ZM303.63 209.289C302.425 219.727 310.053 229.227 320.49 230.432C330.928 231.636 340.429 224.009 341.633 213.571C342.838 203.133 335.21 193.632 324.773 192.428C314.335 191.224 304.834 198.851 303.63 209.289Z" fill="#050A26"/>
<path fill-rule="evenodd" clip-rule="evenodd" d="M296.939 220.663C296.939 220.663 299.08 224.678 298.411 226.685C297.742 228.826 294.798 227.622 294.396 225.882C294.129 224.009 294.931 220.529 295.199 220.128C295.467 219.727 296.403 219.593 296.939 220.663Z" fill="#F8CAAE"/>
<path fill-rule="evenodd" clip-rule="evenodd" d="M221.466 188.681C267.9 215.98 276.464 169.278 282.888 156.297C289.311 143.317 300.15 148.001 301.488 155.495C302.826 162.988 298.678 169.813 298.678 169.813C298.678 169.813 301.89 170.214 305.636 169.947C305.636 169.947 315.405 161.382 317.68 152.818C319.821 144.254 307.911 128.464 300.418 124.449C292.924 120.435 284.092 118.026 275.662 126.189C267.097 134.352 241.405 158.171 229.361 157.368L231.502 152.283C231.502 152.283 224.142 153.889 220.931 157.903C217.719 162.052 215.846 180.786 221.466 188.681Z" fill="#212850"/>
<path fill-rule="evenodd" clip-rule="evenodd" d="M275.528 126.323C271.513 130.203 263.752 137.43 255.322 143.987C250.103 181.723 226.819 178.645 217.987 176.102C218.121 177.574 218.254 178.913 218.388 180.251C229.763 185.603 250.37 189.083 259.47 177.039C269.372 163.925 274.19 136.091 275.528 126.323Z" fill="#312676"/>
<path fill-rule="evenodd" clip-rule="evenodd" d="M349.127 148.938C349.127 148.938 347.254 150.945 344.443 153.353C343.908 153.755 343.373 154.156 342.838 154.692C339.626 157.234 335.478 159.643 331.329 160.178C330.259 160.312 328.519 160.446 326.244 160.58C325.977 160.58 325.709 160.58 325.441 160.58C323.97 160.58 322.364 160.713 320.49 160.713L314.602 159.509C315.941 157.502 317.011 155.227 317.546 152.952C319.554 145.191 310.053 131.675 302.559 126.055C301.756 125.386 300.953 124.984 300.284 124.583C292.79 120.568 283.958 118.16 275.528 126.323C272.985 128.731 268.971 132.478 264.287 136.626C262.414 131.541 262.013 125.386 263.351 117.892C271.781 106.919 281.416 100.362 298.143 104.377C331.597 112.138 353.409 134.485 352.071 142.113C351.67 143.986 350.599 146.395 349.127 148.938Z" fill="#181C3E"/>
<path fill-rule="evenodd" clip-rule="evenodd" d="M397.167 157.903C396.766 157.368 396.364 156.699 395.963 155.896C396.364 154.424 398.104 152.283 402.52 148.804C410.147 142.782 422.057 143.853 425.135 144.923C428.212 145.994 431.156 148.135 423.529 146.395C415.901 144.789 403.456 148.938 397.167 157.903Z" fill="#F19879"/>
<path fill-rule="evenodd" clip-rule="evenodd" d="M57.8087 531.519H870.342C876.631 531.519 881.716 536.604 881.716 542.893V552.528C881.716 558.817 876.631 563.902 870.342 563.902H57.8087C51.5193 563.902 46.4343 558.817 46.4343 552.528V542.893C46.4343 536.604 51.6532 531.519 57.8087 531.519Z" fill="#050A26"/>
<path fill-rule="evenodd" clip-rule="evenodd" d="M43.8918 498.065H884.258C893.893 498.065 901.788 505.96 901.788 515.595V530.314C901.788 539.949 893.893 547.844 884.258 547.844H43.8918C34.257 547.844 26.3618 539.949 26.3618 530.314V515.595C26.4956 505.96 34.257 498.065 43.8918 498.065Z" fill="#2D267A"/>
<path fill-rule="evenodd" clip-rule="evenodd" d="M43.8917 498.065H881.984C882.117 498.734 882.117 499.537 882.117 500.206V514.926C882.117 524.56 874.222 532.455 864.587 532.455H26.6294C26.4956 531.786 26.4956 530.983 26.4956 530.314V515.595C26.4956 505.96 34.257 498.065 43.8917 498.065Z" fill="#3A2689"/>
<path fill-rule="evenodd" clip-rule="evenodd" d="M78.6841 498.065H143.986V547.711H78.6841V498.065ZM793.263 498.065H852.678V547.711H793.263V498.065ZM636.564 498.065H755.393V547.711H636.564V498.065ZM455.109 498.065H573.938V547.711H455.109V498.065ZM264.421 498.065H297.072V547.711H264.421V498.065ZM178.377 498.065H243.68V547.711H178.377V498.065Z" fill="#4D499B"/>
<path fill-rule="evenodd" clip-rule="evenodd" d="M78.6841 498.065H143.986V532.456H78.6841V498.065ZM852.678 532.322H793.263V497.931H852.678V532.322ZM755.393 532.322H636.564V497.931H755.393V532.322ZM573.938 532.322H455.109V497.931H573.938V532.322ZM297.072 532.322H264.421V497.931H297.072V532.322ZM243.68 532.322H178.377V497.931H243.68V532.322Z" fill="#54519F"/>
<path fill-rule="evenodd" clip-rule="evenodd" d="M804.638 498.065H828.323V547.711H804.638V498.065ZM187.343 498.065H210.092V547.711H187.343V498.065ZM88.988 498.065H121.104V547.711H88.988V498.065ZM468.759 498.065H530.85V547.711H468.759V498.065ZM678.315 498.065H740.406V547.711H678.315V498.065Z" fill="#54519F"/>
<path fill-rule="evenodd" clip-rule="evenodd" d="M804.638 498.065H828.323V532.456H804.638V498.065ZM740.272 532.322H678.181V497.931H740.272V532.322ZM530.716 532.322H468.625V497.931H530.716V532.322ZM210.092 532.322H187.343V497.931H210.092V532.322ZM121.104 532.322H88.988V497.931H121.104V532.322Z" fill="#716AAE"/>
<path fill-rule="evenodd" clip-rule="evenodd" d="M82.4311 249.969C105.983 226.016 123.513 256.392 120.97 287.036C118.695 315.94 93.6717 415.366 98.3552 457.251H88.8543C65.4364 403.59 52.3224 280.613 82.4311 249.969Z" fill="#A79CCB"/>
<path fill-rule="evenodd" clip-rule="evenodd" d="M92.3334 457.251C69.5846 372.679 98.3551 255.857 98.4889 255.456C98.6227 254.786 99.4257 254.251 100.095 254.519C100.764 254.653 101.299 255.456 101.031 256.125C100.898 256.526 72.1271 373.482 95.0097 457.251H92.3334Z" fill="#3A2689"/>
<path fill-rule="evenodd" clip-rule="evenodd" d="M140.507 302.827C165.263 289.713 171.553 318.349 161.918 342.035C153.889 361.706 118.561 419.782 105.18 457.251H92.6009C91.3965 405.597 111.201 318.349 140.507 302.827Z" fill="#E74D91"/>
<path fill-rule="evenodd" clip-rule="evenodd" d="M97.0168 457.251C105.18 387.399 151.614 311.525 151.882 311.257C152.149 310.722 152.952 310.588 153.487 310.856C154.023 311.123 154.156 311.926 153.889 312.462C153.755 312.729 107.588 388.202 99.4255 457.251H97.0168Z" fill="#BD1449"/>
<path fill-rule="evenodd" clip-rule="evenodd" d="M35.5953 335.879C11.5084 325.441 7.76151 352.472 18.4668 374.017C25.6929 388.469 51.7871 425.67 69.317 457.251H89.3895C82.431 409.478 60.4852 346.718 35.5953 335.879Z" fill="white"/>
<path fill-rule="evenodd" clip-rule="evenodd" d="M82.1635 457.251C65.035 399.308 25.8268 344.845 25.693 344.577C25.2915 344.042 24.7563 344.042 24.221 344.31C23.6858 344.711 23.6858 345.246 23.9534 345.782C24.0872 346.049 63.0278 399.977 80.0224 457.251H82.1635Z" fill="#A79CCB"/>
<path fill-rule="evenodd" clip-rule="evenodd" d="M111.603 454.307H62.7601C61.2881 454.307 60.0837 455.511 60.0837 456.983V469.026C60.0837 470.498 61.2881 471.703 62.7601 471.703H111.603C113.075 471.703 114.279 470.498 114.279 469.026V456.983C114.279 455.511 113.075 454.307 111.603 454.307Z" fill="#212850"/>
<path fill-rule="evenodd" clip-rule="evenodd" d="M103.173 464.075H71.1907L62.7603 471.703L69.5849 498.065H87.1148H104.779L111.603 471.703L103.173 464.075Z" fill="#212850"/>
<path fill-rule="evenodd" clip-rule="evenodd" d="M62.7603 471.703L64.0984 477.055H110.131L111.603 471.703H62.7603Z" fill="#050A26"/>
<path fill-rule="evenodd" clip-rule="evenodd" d="M168.207 250.772C168.207 250.103 168.742 249.567 169.411 249.567C170.08 249.567 170.616 250.103 170.616 250.772V256.124C170.616 256.793 170.08 257.329 169.411 257.329C168.742 257.329 168.207 256.793 168.207 256.124V250.772ZM160.044 255.188C159.643 254.652 159.643 253.983 160.044 253.448C160.58 252.913 161.249 252.913 161.784 253.448L165.665 257.329C166.066 257.864 166.066 258.533 165.665 259.068C165.129 259.604 164.46 259.604 163.925 259.068L160.044 255.188ZM157.368 264.02C156.699 264.02 156.164 263.484 156.164 262.815C156.164 262.146 156.699 261.611 157.368 261.611H162.721C163.39 261.611 163.925 262.146 163.925 262.815C163.925 263.484 163.39 264.02 162.721 264.02H157.368ZM161.784 272.316C161.249 272.851 160.58 272.851 160.044 272.316C159.643 271.915 159.643 271.112 160.044 270.577L163.925 266.696C164.46 266.294 165.129 266.294 165.665 266.696C166.066 267.231 166.066 267.9 165.665 268.435L161.784 272.316ZM170.616 274.992C170.616 275.662 170.08 276.197 169.411 276.197C168.742 276.197 168.207 275.662 168.207 274.992V269.64C168.207 268.971 168.742 268.435 169.411 268.435C170.08 268.435 170.616 268.971 170.616 269.64V274.992ZM178.912 270.577C179.448 270.978 179.448 271.781 178.912 272.316C178.377 272.851 177.708 272.851 177.173 272.316L173.292 268.435C172.757 267.9 172.757 267.231 173.292 266.696C173.694 266.294 174.496 266.294 175.032 266.696L178.912 270.577ZM181.589 261.611C182.258 261.611 182.793 262.146 182.793 262.815C182.793 263.484 182.258 264.02 181.589 264.02H176.236C175.567 264.02 175.032 263.484 175.032 262.815C175.032 262.146 175.567 261.611 176.236 261.611H181.589ZM177.173 253.448C177.708 252.913 178.377 252.913 178.912 253.448C179.448 253.849 179.448 254.652 178.912 255.188L175.032 259.068C174.63 259.604 173.827 259.604 173.292 259.068C172.757 258.533 172.757 257.864 173.292 257.329L177.173 253.448Z" fill="#A79CCB"/>
<path fill-rule="evenodd" clip-rule="evenodd" d="M716.854 245.687C716.854 245.018 717.389 244.482 718.058 244.482C718.727 244.482 719.263 245.018 719.263 245.687V251.039C719.263 251.709 718.727 252.244 718.058 252.244C717.389 252.244 716.854 251.709 716.854 251.039V245.687ZM708.691 250.103C708.156 249.567 708.156 248.898 708.691 248.363C709.092 247.828 709.895 247.828 710.431 248.363L714.311 252.244C714.847 252.779 714.847 253.448 714.311 253.983C713.776 254.519 713.107 254.519 712.572 253.983L708.691 250.103ZM705.881 258.935C705.212 258.935 704.677 258.399 704.677 257.73C704.677 257.061 705.212 256.526 705.881 256.526H711.234C711.903 256.526 712.438 257.061 712.438 257.73C712.438 258.399 711.903 258.935 711.234 258.935H705.881ZM710.297 267.231C709.895 267.633 709.092 267.633 708.557 267.231C708.022 266.696 708.022 266.027 708.557 265.492L712.438 261.611C712.973 261.076 713.642 261.076 714.178 261.611C714.713 262.012 714.713 262.815 714.178 263.351L710.297 267.231ZM719.263 269.908C719.263 270.577 718.727 271.112 718.058 271.112C717.389 271.112 716.854 270.577 716.854 269.908V264.555C716.854 263.886 717.389 263.351 718.058 263.351C718.727 263.351 719.263 263.886 719.263 264.555V269.908ZM727.425 265.492C727.827 266.027 727.827 266.696 727.425 267.231C726.89 267.633 726.221 267.633 725.686 267.231L721.805 263.351C721.27 262.815 721.27 262.146 721.805 261.611C722.34 261.076 723.009 261.076 723.545 261.611L727.425 265.492ZM730.102 256.526C730.771 256.526 731.306 257.061 731.306 257.73C731.306 258.399 730.771 258.935 730.102 258.935H724.749C724.08 258.935 723.545 258.399 723.545 257.73C723.545 257.061 724.08 256.526 724.749 256.526H730.102ZM725.686 248.363C726.087 247.828 726.89 247.828 727.425 248.363C727.827 248.898 727.827 249.567 727.425 250.103L723.545 253.983C723.009 254.519 722.34 254.519 721.805 253.983C721.27 253.448 721.27 252.779 721.805 252.244L725.686 248.363Z" fill="#A79CCB"/>
<path fill-rule="evenodd" clip-rule="evenodd" d="M342.034 27.5662C342.034 26.8971 342.569 26.3618 343.239 26.3618C343.908 26.3618 344.443 26.8971 344.443 27.5662V32.9188C344.443 33.5879 343.908 34.1232 343.239 34.1232C342.569 34.1232 342.034 33.5879 342.034 32.9188V27.5662ZM333.871 31.9821C333.336 31.4468 333.336 30.7778 333.871 30.2425C334.273 29.7072 335.076 29.7072 335.611 30.2425L339.492 34.1232C340.027 34.6584 340.027 35.3275 339.492 35.8628C338.956 36.398 338.287 36.398 337.752 35.8628L333.871 31.9821ZM331.195 40.9478C330.526 40.9478 329.991 40.4125 329.991 39.7435C329.991 39.0744 330.526 38.5391 331.195 38.5391H336.548C337.217 38.5391 337.752 39.0744 337.752 39.7435C337.752 40.4125 337.217 40.9478 336.548 40.9478H331.195ZM335.477 49.1106C335.076 49.6459 334.273 49.6459 333.738 49.1106C333.202 48.5753 333.202 47.9063 333.738 47.371L337.618 43.4903C338.154 42.955 338.823 42.955 339.358 43.4903C339.893 44.0256 339.893 44.6947 339.358 45.2299L335.477 49.1106ZM344.443 51.7869C344.443 52.456 343.908 52.9913 343.239 52.9913C342.569 52.9913 342.034 52.456 342.034 51.7869V46.4343C342.034 45.7652 342.569 45.2299 343.239 45.2299C343.908 45.2299 344.443 45.7652 344.443 46.4343V51.7869ZM352.606 47.371C353.141 47.9063 353.141 48.5753 352.606 49.1106C352.07 49.6459 351.401 49.6459 350.866 49.1106L346.985 45.2299C346.45 44.6947 346.45 44.0256 346.985 43.4903C347.521 42.955 348.19 42.955 348.725 43.4903L352.606 47.371ZM355.282 38.5391C355.951 38.5391 356.486 39.0744 356.486 39.7435C356.486 40.4125 355.951 40.9478 355.282 40.9478H349.929C349.26 40.9478 348.725 40.4125 348.725 39.7435C348.725 39.0744 349.26 38.5391 349.929 38.5391H355.282ZM350.866 30.2425C351.401 29.7072 352.07 29.7072 352.606 30.2425C353.141 30.7778 353.141 31.4468 352.606 31.9821L348.725 35.8628C348.19 36.398 347.521 36.398 346.985 35.8628C346.45 35.3275 346.45 34.6584 346.985 34.1232L350.866 30.2425Z" fill="#A79CCB"/>
<path fill-rule="evenodd" clip-rule="evenodd" d="M262.414 69.1831H269.238C270.443 69.1831 271.513 70.2536 271.513 71.458V78.2826C271.513 79.487 270.443 80.5575 269.238 80.5575H262.414C261.209 80.5575 260.139 79.487 260.139 78.2826V71.458C260.139 70.1198 261.209 69.1831 262.414 69.1831Z" fill="#A79CCB"/>
<path fill-rule="evenodd" clip-rule="evenodd" d="M285.698 69.1831H292.522C293.727 69.1831 294.797 70.2536 294.797 71.458V78.2826C294.797 79.487 293.727 80.5575 292.522 80.5575H285.698C284.493 80.5575 283.423 79.487 283.423 78.2826V71.458C283.423 70.1198 284.493 69.1831 285.698 69.1831Z" fill="#A79CCB"/>
<path fill-rule="evenodd" clip-rule="evenodd" d="M308.982 69.1831H315.807C317.011 69.1831 318.081 70.2536 318.081 71.458V78.2826C318.081 79.487 317.011 80.5575 315.807 80.5575H308.982C307.778 80.5575 306.707 79.487 306.707 78.2826V71.458C306.707 70.1198 307.644 69.1831 308.982 69.1831Z" fill="#A79CCB"/>
<path fill-rule="evenodd" clip-rule="evenodd" d="M332.132 69.1831H338.957C340.161 69.1831 341.232 70.2536 341.232 71.458V78.2826C341.232 79.487 340.161 80.5575 338.957 80.5575H332.132C330.928 80.5575 329.857 79.487 329.857 78.2826V71.458C329.857 70.1198 330.928 69.1831 332.132 69.1831Z" fill="#A79CCB"/>
<path fill-rule="evenodd" clip-rule="evenodd" d="M735.99 212.232H742.814C744.019 212.232 745.089 213.303 745.089 214.507V221.332C745.089 222.536 744.019 223.607 742.814 223.607H735.99C734.785 223.607 733.715 222.536 733.715 221.332V214.507C733.849 213.303 734.785 212.232 735.99 212.232Z" fill="#A79CCB"/>
<path fill-rule="evenodd" clip-rule="evenodd" d="M759.274 212.232H766.098C767.303 212.232 768.373 213.303 768.373 214.507V221.332C768.373 222.536 767.303 223.607 766.098 223.607H759.274C758.069 223.607 756.999 222.536 756.999 221.332V214.507C756.999 213.303 758.069 212.232 759.274 212.232Z" fill="#A79CCB"/>
<path fill-rule="evenodd" clip-rule="evenodd" d="M782.558 212.232H789.383C790.587 212.232 791.657 213.303 791.657 214.507V221.332C791.657 222.536 790.587 223.607 789.383 223.607H782.558C781.354 223.607 780.283 222.536 780.283 221.332V214.507C780.283 213.303 781.354 212.232 782.558 212.232Z" fill="#A79CCB"/>
<path fill-rule="evenodd" clip-rule="evenodd" d="M805.842 212.232H812.666C813.871 212.232 814.941 213.303 814.941 214.507V221.332C814.941 222.536 813.871 223.607 812.666 223.607H805.842C804.637 223.607 803.567 222.536 803.567 221.332V214.507C803.567 213.303 804.504 212.232 805.842 212.232Z" fill="#A79CCB"/>
<path fill-rule="evenodd" clip-rule="evenodd" d="M124.583 20.2065H219.325C226.15 20.2065 231.77 25.8268 231.77 32.6515V84.1708V87.9176V120.703C231.77 121.238 231.502 121.773 230.967 122.041C230.432 122.308 229.897 122.175 229.495 121.773L208.218 100.496H124.583C117.758 100.496 112.138 94.8761 112.138 88.0514V32.6515C112.138 25.8268 117.758 20.2065 124.583 20.2065Z" fill="#E74D91"/>
<path fill-rule="evenodd" clip-rule="evenodd" d="M194.569 81.628C207.549 81.628 218.121 71.0565 218.121 58.0763C218.121 45.0962 207.549 34.5247 194.569 34.5247C181.589 34.5247 171.017 45.0962 171.017 58.0763C170.884 71.0565 181.589 81.628 194.569 81.628Z" fill="white"/>
<path fill-rule="evenodd" clip-rule="evenodd" d="M190.554 56.872C184.533 58.4778 179.983 63.5628 179.18 69.986C182.793 74.6696 188.279 77.6135 194.703 77.6135C200.992 77.6135 206.612 74.6696 210.225 69.986C209.422 63.6966 204.873 58.6116 198.851 56.872C200.992 55.5338 202.464 53.1251 202.464 50.4488C202.464 46.3005 199.119 42.8213 194.836 42.8213C190.688 42.8213 187.209 46.1667 187.209 50.4488C186.941 53.1251 188.413 55.5338 190.554 56.872Z" fill="#DBD7EB"/>
<path fill-rule="evenodd" clip-rule="evenodd" d="M160.847 73.8667H152.551C151.614 73.8667 150.811 73.0638 150.811 72.1271C150.811 71.1904 151.614 70.3875 152.551 70.3875H160.847C161.784 70.3875 162.587 71.1904 162.587 72.1271C162.587 73.0638 161.784 73.8667 160.847 73.8667Z" fill="#EF96BD"/>
<path fill-rule="evenodd" clip-rule="evenodd" d="M160.847 63.9641H143.317C142.381 63.9641 141.578 63.1612 141.578 62.2245C141.578 61.2878 142.381 60.4849 143.317 60.4849H160.847C161.784 60.4849 162.587 61.2878 162.587 62.2245C162.587 63.1612 161.784 63.9641 160.847 63.9641Z" fill="#EF96BD"/>
<path fill-rule="evenodd" clip-rule="evenodd" d="M160.847 50.7165H152.551C151.614 50.7165 150.811 49.9136 150.811 48.9769C150.811 48.0402 151.614 47.2373 152.551 47.2373H160.847C161.784 47.2373 162.587 48.0402 162.587 48.9769C162.587 49.9136 161.784 50.7165 160.847 50.7165Z" fill="#EF96BD"/>
<path fill-rule="evenodd" clip-rule="evenodd" d="M160.847 42.0183H127.527C126.59 42.0183 125.787 41.2154 125.787 40.2787C125.787 39.342 126.59 38.5391 127.527 38.5391H160.847C161.784 38.5391 162.587 39.342 162.587 40.2787C162.587 41.3492 161.784 42.0183 160.847 42.0183Z" fill="#EF96BD"/>
<path fill-rule="evenodd" clip-rule="evenodd" d="M788.312 100.229H693.57C686.746 100.229 681.125 105.849 681.125 112.673V164.193V168.073V200.858C681.125 201.394 681.393 201.929 681.928 202.197C682.463 202.464 682.999 202.33 683.4 201.929L704.677 180.652H788.178C795.003 180.652 800.623 175.032 800.623 168.207V112.673C800.891 105.849 795.271 100.229 788.312 100.229Z" fill="#716AAE"/>
<path fill-rule="evenodd" clip-rule="evenodd" d="M763.155 158.037C775.198 158.037 784.967 148.268 784.967 136.225C784.967 124.181 775.198 114.413 763.155 114.413C751.111 114.413 741.343 124.181 741.343 136.225C741.343 148.135 751.111 158.037 763.155 158.037Z" fill="#A79CCB"/>
<path fill-rule="evenodd" clip-rule="evenodd" d="M759.407 135.021C753.787 136.493 749.639 141.31 748.836 147.064C752.181 151.347 757.266 154.157 763.154 154.157C769.042 154.157 774.127 151.347 777.473 147.064C776.67 141.177 772.521 136.493 766.901 135.021C768.908 133.817 770.247 131.542 770.247 128.999C770.247 125.119 767.035 121.907 763.154 121.907C759.274 121.907 756.062 125.119 756.062 128.999C756.196 131.542 757.4 133.817 759.407 135.021Z" fill="white"/>
<path fill-rule="evenodd" clip-rule="evenodd" d="M731.975 151.748H719.798C718.861 151.748 718.192 151.079 718.192 150.142C718.192 149.205 718.861 148.536 719.798 148.536H731.975C732.912 148.536 733.581 149.205 733.581 150.142C733.581 150.945 732.778 151.748 731.975 151.748Z" fill="#998FC3"/>
<path fill-rule="evenodd" clip-rule="evenodd" d="M731.975 143.719H713.241C712.304 143.719 711.635 143.05 711.635 142.113C711.635 141.176 712.304 140.507 713.241 140.507H731.975C732.912 140.507 733.581 141.176 733.581 142.113C733.581 143.05 732.778 143.719 731.975 143.719Z" fill="#998FC3"/>
<path fill-rule="evenodd" clip-rule="evenodd" d="M731.975 135.422H722.34C721.404 135.422 720.735 134.753 720.735 133.816C720.735 132.88 721.404 132.211 722.34 132.211H731.975C732.912 132.211 733.581 132.88 733.581 133.816C733.581 134.619 732.778 135.422 731.975 135.422Z" fill="#998FC3"/>
<path fill-rule="evenodd" clip-rule="evenodd" d="M696.38 122.442H699.726C700.662 122.442 701.331 123.111 701.331 124.048C701.331 124.984 700.662 125.653 699.726 125.653H696.38C695.444 125.653 694.774 124.984 694.774 124.048C694.774 123.111 695.577 122.442 696.38 122.442Z" fill="#998FC3"/>
<path fill-rule="evenodd" clip-rule="evenodd" d="M731.975 125.653H705.48C704.543 125.653 703.874 124.984 703.874 124.048C703.874 123.111 704.543 122.442 705.48 122.442H731.975C732.912 122.442 733.581 123.111 733.581 124.048C733.581 124.984 732.778 125.653 731.975 125.653Z" fill="#998FC3"/>
<path fill-rule="evenodd" clip-rule="evenodd" d="M286.099 28.5029V31.1792H288.776C289.846 31.1792 290.783 32.1159 290.783 33.1864C290.783 34.257 289.846 35.1937 288.776 35.1937H286.099V37.87C286.099 38.9405 285.163 39.8772 284.092 39.8772C283.022 39.8772 282.085 38.9405 282.085 37.87V35.1937H279.409C278.338 35.1937 277.401 34.257 277.401 33.1864C277.401 32.1159 278.338 31.1792 279.409 31.1792H282.085V28.5029C282.085 27.4323 283.022 26.4956 284.092 26.4956C285.163 26.4956 286.099 27.4323 286.099 28.5029Z" fill="white"/>
<path fill-rule="evenodd" clip-rule="evenodd" d="M447.883 86.4455V89.1218H450.56C451.63 89.1218 452.567 90.0585 452.567 91.1291C452.567 92.1996 451.63 93.1363 450.56 93.1363H447.883V95.8126C447.883 96.8832 446.947 97.8199 445.876 97.8199C444.806 97.8199 443.869 96.8832 443.869 95.8126V93.1363H441.193C440.122 93.1363 439.185 92.1996 439.185 91.1291C439.185 90.0585 440.122 89.1218 441.193 89.1218H443.869V86.4455C443.869 85.3749 444.806 84.4382 445.876 84.4382C447.08 84.4382 447.883 85.3749 447.883 86.4455Z" fill="white"/>
<path fill-rule="evenodd" clip-rule="evenodd" d="M618.232 74.5358V77.2121H620.908C621.979 77.2121 622.915 78.1489 622.915 79.2194C622.915 80.2899 621.979 81.2266 620.908 81.2266H618.232V83.903C618.232 84.9735 617.295 85.9102 616.225 85.9102C615.154 85.9102 614.217 84.9735 614.217 83.903V81.2266H611.541C610.47 81.2266 609.534 80.2899 609.534 79.2194C609.534 78.1489 610.47 77.2121 611.541 77.2121H614.217V74.5358C614.217 73.4653 615.154 72.5286 616.225 72.5286C617.429 72.5286 618.232 73.4653 618.232 74.5358Z" fill="white"/>
<path fill-rule="evenodd" clip-rule="evenodd" d="M734.117 306.172V308.848H736.793C737.863 308.848 738.8 309.785 738.8 310.856C738.8 311.926 737.863 312.863 736.793 312.863H734.117V315.539C734.117 316.61 733.18 317.546 732.109 317.546C731.039 317.546 730.102 316.61 730.102 315.539V312.863H727.426C726.355 312.863 725.418 311.926 725.418 310.856C725.418 309.785 726.355 308.848 727.426 308.848H730.102V306.172C730.102 305.102 731.039 304.165 732.109 304.165C733.314 304.299 734.117 305.102 734.117 306.172Z" fill="white"/>
<path fill-rule="evenodd" clip-rule="evenodd" d="M47.5047 297.741V300.418H50.181C51.2516 300.418 52.1883 301.354 52.1883 302.425C52.1883 303.495 51.2516 304.432 50.181 304.432H47.5047V307.109C47.5047 308.179 46.568 309.116 45.4975 309.116C44.4269 309.116 43.4902 308.179 43.4902 307.109V304.432H40.8139C39.7434 304.432 38.8066 303.495 38.8066 302.425C38.8066 301.354 39.7434 300.418 40.8139 300.418H43.4902V297.741C43.4902 296.671 44.4269 295.734 45.4975 295.734C46.7018 295.734 47.5047 296.671 47.5047 297.741Z" fill="white"/>
</svg>
